<svg width="17" height="12" viewBox="0 0 17 12" fill="none" xmlns="http://www.w3.org/2000/svg">
<path fill-rule="evenodd" clip-rule="evenodd" d="M14.25 0C15.4926 0 16.5 1.00736 16.5 2.25V9.75C16.5 10.9926 15.4926 12 14.25 12H2.25C1.00736 12 0 10.9926 0 9.75V2.25C0 1.00736 1.00736 0 2.25 0H14.25ZM13.6896 1.5H2.81038L7.78528 5.42755C8.05776 5.64267 8.44226 5.64267 8.71474 5.42755L13.6896 1.5ZM1.5 2.3766V9.75C1.5 10.1642 1.83579 10.5 2.25 10.5H14.25C14.6642 10.5 15 10.1642 15 9.75V2.37662L9.64421 6.60487C8.82677 7.25023 7.67326 7.25023 6.85581 6.60487L1.5 2.3766Z" fill="#929DB3"/>
</svg>
