<svg width="35" height="43" viewBox="0 0 35 43" fill="none" xmlns="http://www.w3.org/2000/svg">
<path d="M12.3925 9.51701C9.80235 10.2148 12.4364 5.87657 13.1348 5.04824C12.0187 5.38062 10.9255 3.68221 10.4148 3.48905C10.1516 3.38812 9.90062 4.0372 9.77954 4.23732C9.27589 5.06739 8.74242 6.71881 8.24228 7.35397C7.4175 8.39982 6.91561 6.61788 6.62431 6.2072C5.74863 4.96994 4.53778 3.81446 3.34448 2.86781C2.64956 2.71989 1.33166 4.47747 1.39835 5.12829C1.41941 5.33885 3.61122 7.77684 3.99553 8.46594C6.04345 12.1325 3.7674 13.8413 2.42143 17.0781C1.3615 19.6292 1.06492 21.9401 1.75458 24.6583C2.1231 24.9767 4.90279 22.2116 5.25903 21.7991C5.84691 21.1205 6.75417 19.4064 7.18937 19.0236C7.62458 18.6407 8.35284 18.8043 8.36337 19.389C8.38092 20.494 5.28886 23.7638 4.38336 24.573C4.0394 24.8793 2.44775 25.9112 2.36176 26.0469C2.20032 26.3062 2.3021 26.4924 2.35123 26.7482C2.70045 28.5562 5.05196 32.4803 6.16278 34.083C11.2834 41.4735 18.1871 45.7352 23.8465 35.8806C26.563 31.1474 28.0546 25.1855 26.8824 19.7962C26.6367 18.6703 26.1436 17.5827 25.9856 16.4916L26.556 16.0305C27.4123 15.9678 27.9405 18.3849 28.1073 19.1036C28.8847 22.443 28.8689 25.142 28.1073 28.4779C26.1576 37.0396 19.4242 48.4151 9.71461 40.1075C4.19734 35.3864 -1.67616 25.2517 0.652533 17.9255C1.36325 15.6894 3.94113 12.4788 3.38309 10.2827C2.9163 8.44854 0.194516 6.42298 0.0313145 5.61206C-0.221385 4.36262 1.10704 2.50237 2.15469 1.88635C3.54805 1.06673 3.90428 1.52265 4.99756 2.43799C5.79075 3.10273 6.80155 4.58536 7.43856 5.05173C7.59123 5.1631 7.62458 5.28491 7.87903 5.21878C8.66169 3.04009 10.5991 -0.00347736 13.2226 2.98218e-06C14.3667 2.98218e-06 15.8952 0.649087 16.3725 1.74714C17.3026 3.88581 14.9669 4.94209 13.8648 6.376C13.098 7.37486 12.7891 8.34413 12.3925 9.51527V9.51701ZM11.7959 3.07663C13.0945 4.38872 16.0216 3.8075 15.0704 2.17348C14.1948 0.668229 10.2481 1.51221 11.7959 3.07663Z" fill="#005BBB"/>
<path d="M23.2902 5.39106L28.6302 4.86379C31.1589 5.20834 31.6205 8.73045 29.197 9.5988C28.4389 9.87026 27.3281 9.66144 26.7929 10.2514C28.2143 10.5315 28.9724 11.151 30.5149 10.9057C31.7854 10.7038 32.2013 9.76933 33.6824 10.6272C35.253 11.5373 34.5546 13.2131 33.0998 13.8118C34.3844 14.9568 36.0918 16.3977 34.0615 17.8907C31.8451 19.5213 30.3149 16.8605 28.4881 15.9504C26.1752 14.7984 24.4765 15.0194 22.7655 16.9354C22.3425 17.4087 22.2741 18.3501 21.3124 17.9046L21.0597 17.4331C23.0076 13.0635 26.921 13.2218 30.529 15.6633C31.5292 16.3402 32.5119 17.9516 33.6087 16.3907L31.1625 13.6308C30.8571 12.799 33.7123 12.4161 33.2718 11.8193C32.2645 11.386 31.3555 12.1586 30.3377 12.2926C28.467 12.5414 27.8914 11.774 26.2699 11.3807C22.7339 10.5263 20.7456 11.0623 18.3941 13.817C17.8835 14.4156 16.72 16.5612 16.1707 16.6326C14.3018 16.8727 16.8586 13.5385 17.2675 13.0496C18.8837 11.1197 20.6632 10.1278 23.0778 9.43696C24.2185 9.11155 28.6162 8.52511 29.0812 8.09877C29.7147 7.51929 29.4795 6.42994 28.6267 6.26985C27.9669 6.14629 26.4191 6.36555 25.6557 6.44038C24.8924 6.51521 22.4426 7.08251 22.0091 6.8006C21.0527 6.17588 23.3797 3.01224 21.7898 2.7895C20.5333 2.61374 20.6737 4.85508 20.3666 5.71125C19.5541 7.97347 15.4126 9.72235 13.5665 11.2937C12.3293 12.3465 11.4537 13.5003 10.9904 15.0751C8.61782 15.7399 10.6166 12.477 11.2922 11.6435C13.0822 9.43522 18.4626 7.17474 19.1803 5.05695C19.6769 3.59172 19.3154 1.24597 21.781 1.41302C23.9061 1.55746 24.1062 3.85797 23.2902 5.39628V5.39106Z" fill="#005BBB"/>
<path d="M13.7946 19.664C14.3544 22.7406 16.9587 24.4686 19.0943 26.4733C20.0998 26.6995 21.1282 26.8021 22.1618 26.7447C22.8462 26.7064 24.2852 26.0782 24.4466 26.8996C24.7028 28.2047 21.6494 28.203 20.8421 27.9524C20.7088 28.0899 22.7462 31.3162 20.9545 31.1978C20.2034 31.1491 20.4122 30.2686 20.1806 29.7343C19.433 28.015 17.2973 26.7639 15.9408 25.5214C15.9356 26.1548 15.3073 26.8108 15.2406 27.3607C15.1055 28.4779 16.1777 31.9043 16.7217 32.9902C17.1359 33.8168 18.7381 35.5657 18.8434 35.9311C18.903 36.1434 18.8592 36.3244 18.7556 36.5088C18.0432 37.5686 16.5919 35.2159 16.2006 34.7217C15.7039 34.5981 14.3036 37.7409 13.4753 36.5088C12.9646 35.7519 15.0687 34.0186 15.353 33.2443L14.1877 29.167C12.6821 30.1154 12.5031 32.101 11.4607 33.3174C11.0711 33.7733 10.6359 34.2344 10.0305 33.8081C9.31275 33.0964 11.6028 31.4014 11.387 30.3817C10.4657 29.9049 8.02468 31.9687 7.78251 30.7384C7.51051 29.3532 11.4186 28.7407 12.4364 29.0887C13.0366 28.2883 15.1003 25.276 14.8651 24.432C14.8107 24.2371 13.8613 23.2487 13.6297 22.8659C13.2752 22.2777 12.1925 20.0729 12.9102 19.6065L13.7982 19.6622L13.7946 19.664Z" fill="#005BBB"/>
</svg>
