<svg width="52" height="48" viewBox="0 0 52 48" fill="none" xmlns="http://www.w3.org/2000/svg">
<path d="M51.2383 10.7234C51.659 10.7234 52 10.3805 52 9.95745V4.95319C52 3.40453 50.7471 2.14468 49.207 2.14468H44.6445V1.78723C44.6445 0.801804 43.8472 0 42.8672 0H32.7109C31.731 0 30.9336 0.801804 30.9336 1.78723V2.14468H2.79297C1.25288 2.14468 0 3.40453 0 4.95319V35.3872C0 36.9359 1.25288 38.1957 2.79297 38.1957H7.28599C7.70666 38.1957 8.04771 37.8528 8.04771 37.4298C8.04771 37.0068 7.70666 36.6638 7.28599 36.6638H2.79297C2.0929 36.6638 1.52344 36.0912 1.52344 35.3872V33.0894H50.4766V35.3872C50.4766 36.0912 49.9071 36.6638 49.207 36.6638H10.9688C10.5481 36.6638 10.207 37.0068 10.207 37.4298C10.207 37.8528 10.5481 38.1957 10.9688 38.1957H13.1016V43.4043H11.8574C10.9474 43.4043 10.207 44.1488 10.207 45.0638V46.3404C10.207 47.2555 10.9474 48 11.8574 48H40.1426C41.0526 48 41.793 47.2555 41.793 46.3404V45.0638C41.793 44.1488 41.0526 43.4043 40.1426 43.4043H38.8984V38.1957H49.207C50.7471 38.1957 52 36.9359 52 35.3872V13.4916C52 13.0686 51.659 12.7256 51.2383 12.7256C50.8176 12.7256 50.4766 13.0686 50.4766 13.4916V31.5574H48.9531V6.38298C48.9531 5.73539 48.4292 5.20851 47.7852 5.20851H44.6445V3.6766H49.207C49.9071 3.6766 50.4766 4.24923 50.4766 4.95319V9.95745C50.4766 10.3805 50.8176 10.7234 51.2383 10.7234ZM40.2695 45.0638V46.3404C40.2695 46.4108 40.2126 46.4681 40.1426 46.4681H11.8574C11.7874 46.4681 11.7305 46.4108 11.7305 46.3404V45.0638C11.7305 44.9935 11.7874 44.9362 11.8574 44.9362H40.1426C40.2126 44.9362 40.2695 44.9935 40.2695 45.0638ZM21.2767 43.4043L21.7869 42.2384C21.9577 41.8481 22.342 41.5959 22.766 41.5959H29.2341C29.6581 41.5959 30.0424 41.848 30.2132 42.2384L30.7233 43.4043H21.2767ZM37.375 43.4043H32.3877L31.6076 41.6214C31.1936 40.6753 30.2619 40.064 29.234 40.064H22.7659C21.738 40.064 20.8064 40.6753 20.3923 41.6214L19.6123 43.4043H14.625V38.1957H37.375V43.4043ZM32.457 1.78723C32.457 1.6465 32.571 1.53191 32.7109 1.53191H42.8672C43.0071 1.53191 43.1211 1.6465 43.1211 1.78723V12C43.1211 12.1407 43.0071 12.2553 42.8672 12.2553H32.7109C32.571 12.2553 32.457 12.1407 32.457 12V1.78723ZM1.52344 4.95319C1.52344 4.24923 2.0929 3.6766 2.79297 3.6766H30.9336V5.20851H4.21484C3.57084 5.20851 3.04688 5.73539 3.04688 6.38298V31.5574H1.52344V4.95319ZM40.8359 22.2951H34.7422C34.3221 22.2951 33.9805 21.9515 33.9805 21.5291C33.9805 21.1067 34.3221 20.7632 34.7422 20.7632H40.8359C41.256 20.7632 41.5977 21.1067 41.5977 21.5291C41.5977 21.9515 41.256 22.2951 40.8359 22.2951ZM35.5039 31.5574V23.827H40.0742V31.5574H35.5039ZM47.4297 6.74043V31.5574H41.5977V23.6953C42.4843 23.3791 43.1211 22.5277 43.1211 21.5291C43.1211 20.262 42.096 19.2313 40.8359 19.2313H34.7422C33.4821 19.2313 32.457 20.262 32.457 21.5291C32.457 22.5276 33.0938 23.3791 33.9805 23.6953V31.5574H4.57031V6.74043H30.9336V12C30.9336 12.9854 31.731 13.7872 32.7109 13.7872H42.8672C43.8472 13.7872 44.6445 12.9854 44.6445 12V6.74043H47.4297Z" fill="#005BBB"/>
<path d="M25.0916 16.4199C23.9286 16.4199 22.9424 17.1948 22.6162 18.2582H21.1572C20.8506 16.7035 19.6299 15.476 18.0838 15.1677V13.7005C19.1413 13.3727 19.9119 12.3808 19.9119 11.2114C19.9119 9.77535 18.7502 8.60711 17.3221 8.60711C15.894 8.60711 14.7323 9.77535 14.7323 11.2114C14.7323 12.3808 15.5029 13.3726 16.5604 13.7005V15.1677C15.0143 15.476 13.7936 16.7035 13.487 18.2582H12.0279C11.7019 17.1948 10.7156 16.4199 9.55256 16.4199C8.12449 16.4199 6.96272 17.5881 6.96272 19.0241C6.96272 20.4602 8.12449 21.6284 9.55256 21.6284C10.7156 21.6284 11.7018 20.8534 12.0279 19.7901H13.487C13.7936 21.3448 15.0143 22.5723 16.5604 22.8806V24.3477C15.5029 24.6756 14.7323 25.6674 14.7323 26.8369C14.7323 28.2729 15.894 29.4412 17.3221 29.4412C18.7502 29.4412 19.9119 28.2729 19.9119 26.8369C19.9119 25.6674 19.1413 24.6757 18.0838 24.3477V22.8806C19.6299 22.5723 20.8506 21.3448 21.1572 19.7901H22.6162C22.9423 20.8534 23.9286 21.6284 25.0916 21.6284C26.5197 21.6284 27.6815 20.4602 27.6815 19.0241C27.6815 17.5881 26.5196 16.4199 25.0916 16.4199ZM17.3221 10.139C17.9101 10.139 18.3885 10.6201 18.3885 11.2114C18.3885 11.8027 17.9101 12.2837 17.3221 12.2837C16.734 12.2837 16.2557 11.8027 16.2557 11.2114C16.2557 10.6201 16.734 10.139 17.3221 10.139ZM9.55256 20.0965C8.96452 20.0965 8.48616 19.6155 8.48616 19.0241C8.48616 18.4328 8.96452 17.9518 9.55256 17.9518C10.1406 17.9518 10.619 18.4328 10.619 19.0241C10.619 19.6155 10.1405 20.0965 9.55256 20.0965ZM17.3221 27.9092C16.734 27.9092 16.2557 27.4282 16.2557 26.8369C16.2557 26.2456 16.734 25.7646 17.3221 25.7646C17.9101 25.7646 18.3885 26.2456 18.3885 26.8369C18.3885 27.4282 17.91 27.9092 17.3221 27.9092ZM17.3221 21.4241C16.006 21.4241 14.9354 20.3475 14.9354 19.0241C14.9354 17.7008 16.006 16.6241 17.3221 16.6241C18.6381 16.6241 19.7088 17.7008 19.7088 19.0241C19.7088 20.3475 18.6381 21.4241 17.3221 21.4241ZM25.0916 20.0965C24.5036 20.0965 24.0252 19.6155 24.0252 19.0241C24.0252 18.4328 24.5036 17.9518 25.0916 17.9518C25.6797 17.9518 26.158 18.4328 26.158 19.0241C26.158 19.6155 25.6796 20.0965 25.0916 20.0965Z" fill="#005BBB"/>
<path d="M34.7422 4.59574H37.2383C37.659 4.59574 38 4.2528 38 3.82979C38 3.40677 37.659 3.06383 37.2383 3.06383H34.7422C34.3215 3.06383 33.9805 3.40677 33.9805 3.82979C33.9805 4.2528 34.3215 4.59574 34.7422 4.59574Z" fill="#005BBB"/>
<path d="M34.7422 7.65957H40.8359C41.2566 7.65957 41.5977 7.31663 41.5977 6.89362C41.5977 6.4706 41.2566 6.12766 40.8359 6.12766H34.7422C34.3215 6.12766 33.9805 6.4706 33.9805 6.89362C33.9805 7.31663 34.3215 7.65957 34.7422 7.65957Z" fill="#005BBB"/>
<path d="M34.7422 10.7234H39.1602C39.5808 10.7234 39.9219 10.3805 39.9219 9.95745C39.9219 9.53443 39.5808 9.19149 39.1602 9.19149H34.7422C34.3215 9.19149 33.9805 9.53443 33.9805 9.95745C33.9805 10.3805 34.3215 10.7234 34.7422 10.7234Z" fill="#005BBB"/>
</svg>
