<svg width="46" height="37" viewBox="0 0 46 37" fill="none" xmlns="http://www.w3.org/2000/svg">
<path d="M35.1979 22.6718L35.2017 32.7789C35.0349 35.0215 33.4181 36.7852 31.1261 37L3.88765 36.9943C1.81436 36.7035 0.228234 35.1318 0 33.0621V14.8416C0.191793 12.694 1.90451 11.0063 4.08136 10.8144L22.9577 10.7992L23.1015 10.6566C23.5503 2.12891 33.28 -2.8562 40.6563 1.76021C46.3583 5.32942 47.7201 12.9354 43.6579 18.274L45.3188 22.0009C45.5221 22.8467 45.1213 22.9987 44.3579 22.9512C42.7354 22.8486 39.9429 21.9325 38.5198 22.0352C38.0825 22.0675 37.1293 22.4438 36.5596 22.5426C36.1089 22.6224 35.6601 22.7041 35.1998 22.6661L35.1979 22.6718ZM43.6349 21.5334L42.1984 18.1733C42.5167 17.4302 43.0998 16.8581 43.493 16.1283C48.7864 6.3234 36.3947 -3.42827 28.0018 3.65124C19.1007 11.1603 27.7621 24.8879 38.5025 20.6991L43.6349 21.5334ZM23.1149 12.1409L3.89532 12.1486C2.63716 12.3975 1.66668 13.3079 1.36557 14.547L15.9303 26.7884C16.7685 27.4612 17.9806 27.484 18.9281 27.0184L27.1349 20.1422C27.1694 19.9465 26.6228 19.6538 26.4675 19.4941C24.5476 17.5385 23.1936 14.9062 23.1149 12.139V12.1409ZM33.8553 22.6718C32.3977 22.6623 30.8845 22.2461 29.5688 21.6474C29.3041 21.5277 28.4468 20.929 28.2646 20.9766L19.9235 27.9116C18.1245 29.0805 16.477 28.8429 14.8218 27.6037C10.4508 24.3367 6.2563 20.2467 1.9678 16.7935C1.87766 16.7212 1.31378 16.2461 1.25241 16.3164L1.24857 32.3038C1.36365 32.8245 1.3157 33.4137 1.55736 33.8945C1.58805 33.9572 1.65326 34.1017 1.73189 34.0086L9.63761 26.0814C10.3453 25.6785 10.9399 26.4102 10.5007 27.0317L2.63908 35.0025C2.46454 35.1774 2.93252 35.3693 3.07253 35.4321C3.63065 35.6829 4.24247 35.6886 4.84086 35.7685H30.4529C31.1971 35.6848 31.83 35.5955 32.484 35.2154C32.5627 35.1698 32.6432 35.2439 32.6049 35.0538L24.4958 26.8511C24.2772 26.2315 24.9063 25.7602 25.4663 26.0833L33.2761 33.9154L33.5638 34.0561L33.8553 32.8739L33.8515 22.6718H33.8553Z" fill="#005BBB"/>
<path d="M36.0418 9.22932C36.5942 9.21982 38.0921 9.08298 38.4967 9.30725C39.0894 9.63794 38.8477 10.4286 38.2148 10.5236C35.8596 10.3069 33.138 10.8923 30.8346 10.6262C29.9524 10.5236 29.96 9.44218 30.9401 9.30535C32.2826 9.11719 34.5784 9.25783 36.0418 9.22932Z" fill="#005BBB"/>
<path d="M30.8576 13.6823C31.3774 13.5911 34.0721 13.5702 34.5727 13.6614C35.125 13.764 35.1672 14.6554 34.7165 14.8435C34.5765 14.9024 33.9992 14.9709 33.8055 14.9861C33.1898 15.0336 31.2892 15.083 30.7579 14.9671C30.0789 14.8188 30.0291 13.8267 30.8557 13.6823H30.8576Z" fill="#005BBB"/>
</svg>
